# xmcd
#
# Track frame offsets:
#	150
#	14761
#	32457
#	54208
#	76536
#	94041
#	111316
#	128591
#	149760
#	165866
#	184357
#	202618
#	218489
#	239406
#	254486
#	266728
#	285482
#	304266
#
# Disc length: 4233 seconds
#
# Revision: 0
# Processed by: cddbd v1.5.2PL0 Copyright (c) Steve Scherf et al.
# Submitted via: audiograbber 1.83.01
#
DISCID=f1108712
DTITLE=Γιαννης Πλουταρχος - Στιγμες Best Of
DYEAR=2007
DGENRE=
TTITLE0=Γιαννης Πλουταρχος - Αν θυμηθεις τ' ονειρο μου
TTITLE1=Γιαννης Πλουταρχος - Το καλυτερο παιδι
TTITLE2=Γιαννης Πλουταρχος - Θα τα σπασω ολα
TTITLE3=Γιαννης Πλουταρχος - Σε ξεπερασα
TTITLE4=Γιαννης Πλουταρχος - Αχ κοριτσι μου
TTITLE5=Γιαννης Πλουταρχος - Δεν ειμαι Θεος
TTITLE6=Γιαννης Πλουταρχος - Εψαξα χρονια να σε βρω
TTITLE7=Γιαννης Πλουταρχος - Ολα σε σενα τα βρηκα
TTITLE8=Γιαννης Πλουταρχος - Αφιερωμενο
TTITLE9=Γιαννης Πλουταρχος - Σαββατο εκλαψα για σενα
TTITLE10=Γιαννης Πλουταρχος - Φυσαει πολυ
TTITLE11=Γιαννης Πλουταρχος - Μηπως σου ζητησα πολλα
TTITLE12=Γιαννης Πλουταρχος - Κατεβα λιγο να σε δω
TTITLE13=Γιαννης Πλουταρχος - Το πουκαμισο
TTITLE14=Γιαννης Πλουταρχος - Φοβαμαι εμενα, εμενα και μονο
TTITLE15=Γιαννης Πλουταρχος - Δεν ειναι τωρα πια εδω
TTITLE16=Γιαννης Πλουταρχος - Καμια δεν μοιαζει με σενα ματια μου
TTITLE17=Γιαννης Πλουταρχος - Κλεινω αργα τα βλεφαρα μου
EXTD=
EXTT0=
EXTT1=
EXTT2=
EXTT3=
EXTT4=
EXTT5=
EXTT6=
EXTT7=
EXTT8=
EXTT9=
EXTT10=
EXTT11=
EXTT12=
EXTT13=
EXTT14=
EXTT15=
EXTT16=
EXTT17=
PLAYORDER=
